<?xml version="1.0" encoding="utf-8"?>
<svg viewBox="198.4854 173.937 627.9285 695.5701" xmlns="http://www.w3.org/2000/svg">
  <path d="M0 0 C2.75074678 2.60597064 3.8487341 4.21005585 4.5625 7.9375 C3.76884408 12.25851556 2.29420787 14.11756811 -1 17 C-3.85444748 17.81144575 -6.13727226 17.75608333 -9 17 C-11.9838283 15.01078114 -13.60276841 13.61497432 -14.4765625 10.0625 C-14.77202976 5.95706014 -14.2983264 4.37895515 -11.6875 1.0625 C-7.22209841 -2.36443611 -5.0361848 -2.2611442 0 0 Z " transform="matrix(0.9999999999999999, 0, 0, 0.9999999999999999, 703.9999999999999, 542.9999999999998)" style=""/>
  <path d="M0 0 C2.52236272 2.84782888 2.96169827 4.73188787 3.5 8.5 C3 12 3 12 0.9375 14.9375 C-2 17 -2 17 -5.5 17.625 C-9.96169385 16.82826896 -11.35725313 15.65320891 -14 12 C-15.11751323 8.0887037 -15.39147943 5.97869858 -13.875 2.1875 C-9.63470208 -2.75951424 -5.80150949 -2.4710133 0 0 Z " transform="matrix(0.9999999999999999, 0, 0, 0.9999999999999999, 331.99999999999994, 542.9999999999998)" style=""/>
  <path d="M0 0 C2.69990662 1.79993774 4.5418865 3.083773 6 6 C6.48602588 10.29322859 6.46241608 12.32082639 4 15.9375 C0.66476514 18.23047397 -1.10007055 18.76173735 -5.0625 18.4765625 C-8.61497432 17.60276841 -10.01078114 15.9838283 -12 13 C-12.67639058 9.97719254 -12.45558841 8.18911887 -12 5 C-8.53870498 0.50031647 -5.60476862 -0.54948712 0 0 Z " transform="matrix(0.9999999999999999, 0, 0, 0.9999999999999999, 701.9999999999999, 465.99999999999994)" style=""/>
  <path d="M0 0 C2.69990662 1.79993774 4.5418865 3.083773 6 6 C6.48602588 10.29322859 6.46241608 12.32082639 4 15.9375 C0.66411401 18.23092162 -1.09984094 18.75815509 -5.0625 18.48046875 C-8.5685303 17.61102978 -10.01216563 15.91963173 -12 13 C-12.69151325 8.69725091 -12.51557405 6.79054688 -10.125 3.125 C-6.79974618 -0.20025382 -4.65430991 -0.45630489 0 0 Z " transform="matrix(0.9999999999999999, 0, 0, 0.9999999999999999, 328.99999999999994, 465.99999999999994)" style=""/>
  <path d="M0 0 C1.17116364 -0.0038269 2.34232727 -0.00765381 3.54898071 -0.01159668 C6.00450509 -0.01430075 8.46005903 -0.00704601 10.91552734 0.00976562 C14.67480108 0.03131155 18.43218888 0.00985125 22.19140625 -0.015625 C24.58594171 -0.01298373 26.980476 -0.00786291 29.375 0 C31.05630508 -0.01214539 31.05630508 -0.01214539 32.77157593 -0.02453613 C40.52766087 0.06902502 40.52766087 0.06902502 44.45166016 2.45117188 C47.33668403 5.71723664 48.17694561 7.52219795 48.6640625 11.90625 C48.21966895 16.20205432 46.99314956 18.20908589 44.2890625 21.53125 C41.20148048 23.58963801 40.55655044 23.78072524 37.06811523 23.78662109 C36.21970566 23.79358002 35.37129608 23.80053894 34.49717712 23.80770874 C33.58158524 23.80671173 32.66599335 23.80571472 31.72265625 23.8046875 C29.7727809 23.82499363 27.82291116 23.84584472 25.87304688 23.8671875 C22.8078133 23.88968822 19.7428023 23.90621879 16.67749023 23.91210938 C13.71297125 23.92171028 10.74944871 23.9555965 7.78515625 23.9921875 C6.88373398 23.98714203 5.98231171 23.98209656 5.05357361 23.97689819 C-3.07765728 24.10079209 -10.3224045 26.15824341 -16.5234375 31.59375 C-31.05971848 47.64207912 -25.7109375 73.59863491 -25.7109375 92.53125 C28.7390625 93.02625 28.7390625 93.02625 84.2890625 93.53125 C84.2890625 83.63125 84.2890625 73.73125 84.2890625 63.53125 C87.7072246 48.71921425 92.11779666 37.76079783 102.2890625 26.53125 C102.92714844 25.82355469 103.56523437 25.11585938 104.22265625 24.38671875 C117.91253619 9.98066803 136.25357777 2.0930669 156.07820702 1.4392662 C159.27089115 1.4017984 162.46212931 1.39610451 165.6550293 1.40185547 C166.86280533 1.40010315 168.07058136 1.39835083 169.31495667 1.39654541 C172.60452879 1.39291658 175.8940602 1.39374221 179.18363166 1.3969245 C182.64706485 1.3994749 186.11049552 1.39710287 189.57392883 1.39553833 C195.39328492 1.3937232 201.21262828 1.39610442 207.03198242 1.40087891 C213.72508478 1.40630745 220.4181566 1.40456647 227.11125821 1.3990525 C232.88740951 1.39448726 238.66355171 1.39388778 244.43970424 1.39649117 C247.87622216 1.39803695 251.31272582 1.39829527 254.74924278 1.39495468 C258.59155661 1.39239121 262.43381342 1.39632095 266.27612305 1.40185547 C267.38984283 1.39983124 268.50356262 1.39780701 269.65103149 1.39572144 C291.74440248 1.45414053 311.63383674 4.79136241 328.3984375 20.41796875 C331.45149415 23.83057959 332.26256985 25.72322405 332.4140625 30.34375 C331.70649903 35.12652079 328.84269404 37.28071598 325.19921875 40.18359375 C322.14307374 42.33976968 319.60802689 43.16213976 315.8125 43.1484375 C312.35890093 42.30374918 309.89728364 40.37970695 307.1015625 38.28125 C295.13919393 29.33046018 281.80238188 28.38485106 267.31201172 28.37011719 C265.54445778 28.36266983 265.54445778 28.36266983 263.74119568 28.35507202 C259.85870775 28.34051686 255.97626069 28.33365913 252.09375 28.328125 C250.74809877 28.32538558 249.40244777 28.32252891 248.05679703 28.31955719 C241.73072238 28.3059061 235.4046605 28.29622827 229.07857215 28.2923553 C221.81654525 28.28788283 214.55470734 28.27036273 207.29273784 28.2413547 C201.65248552 28.21961957 196.01228591 28.20964473 190.37199223 28.20831418 C187.01583537 28.20727439 183.65999725 28.2000588 180.30385971 28.18349457 C150.01456252 27.86591141 150.01456252 27.86591141 124.16796875 42.421875 C118.14925058 49.1788559 113.34798559 56.66596957 111.2890625 65.53125 C111.0324157 66.52233765 111.0324157 66.52233765 110.77058411 67.53344727 C110.0745724 71.86659819 110.1245507 76.1489592 110.11206055 80.53125 C110.10220375 82.03720985 110.10220375 82.03720985 110.09214783 83.57359314 C110.07245624 86.89281293 110.06075917 90.21198747 110.05078125 93.53125 C110.04670572 94.66885773 110.0426302 95.80646545 110.03843117 96.97854614 C110.01758449 103.00408749 110.00327869 109.02960619 109.99389648 115.05517578 C109.98285667 121.25418105 109.94848038 127.45282494 109.90872478 133.65170288 C109.88247345 138.4389509 109.87419691 143.22611408 109.87061501 148.01342773 C109.86576827 150.2969811 109.85420948 152.58053117 109.83557701 154.86401367 C109.70974546 171.31218885 110.45124437 184.66778716 120.2890625 198.53125 C120.79050781 199.24023438 121.29195312 199.94921875 121.80859375 200.6796875 C128.95021819 209.75007183 139.19822486 214.29572569 150.2890625 216.53125 C154.86926384 216.93454343 159.41958651 216.94208685 164.01538086 216.91943359 C165.3571261 216.92350917 166.69886798 216.92885654 168.04060364 216.93536377 C171.65229832 216.94892751 175.26373312 216.9437842 178.87543178 216.93422651 C182.67612141 216.92657105 186.47679046 216.93369187 190.27748108 216.93838501 C196.65825345 216.94382623 203.03892128 216.93669476 209.41967773 216.92236328 C216.76845148 216.90604689 224.11697533 216.91132445 231.46574301 216.9278425 C237.80412571 216.94151256 244.14243374 216.94335 250.48082644 216.93552649 C254.25375332 216.93087924 258.02656325 216.93014281 261.79948235 216.94013596 C265.34963831 216.94888402 268.89947624 216.94264299 272.44959831 216.92545319 C274.35324558 216.91967667 276.25692015 216.928437 278.16055298 216.93783569 C293.27108179 216.82780614 305.25195814 212.78035763 316.47265625 202.51171875 C324.62921095 193.61844298 328.42371689 182.34167225 328.40258789 170.44604492 C328.40280693 169.40619446 328.40280693 169.40619446 328.4030304 168.34533691 C328.40233701 166.06743171 328.39457165 163.78960957 328.38671875 161.51171875 C328.38485253 159.92702784 328.38342959 158.34233635 328.38243103 156.75764465 C328.37862193 152.5967549 328.36880542 148.43590032 328.35772705 144.27502441 C328.34747832 140.02515132 328.342926 135.77527252 328.33789062 131.52539062 C328.32718166 123.19399431 328.31012461 114.86262654 328.2890625 106.53125 C326.40252095 105.88634625 326.40252095 105.88634625 324.2890625 105.53125 C321.93045538 107.0520552 321.93045538 107.0520552 319.6640625 109.34375 C318.7875 110.17261719 317.9109375 111.00148438 317.0078125 111.85546875 C313.60996999 115.19960973 310.23107027 118.55970568 306.90625 121.9765625 C304.15582402 124.66130666 301.29302159 127.16707093 298.39013672 129.68408203 C294.98721617 132.67577351 291.7051471 135.79269111 288.4140625 138.90625 C283.24773743 143.77249119 278.046571 148.58735305 272.75390625 153.31640625 C264.82698746 160.43932694 257.05870403 167.7378123 249.2890625 175.03125 C247.2697886 176.92459121 245.25024809 178.8176472 243.23046875 180.71044922 C241.96646704 181.89592768 240.70339715 183.08240071 239.44140625 184.27001953 C221.29835827 201.33146273 221.29835827 201.33146273 216.40625 201.65625 C209.35454274 201.26312346 206.08978982 198.47501575 201.2890625 193.53125 C200.48339844 192.72558594 199.67773438 191.91992188 198.84765625 191.08984375 C197.21350847 189.45569597 195.58877834 187.81203925 193.9765625 186.15625 C191.92120578 184.14869228 189.85744857 182.28240885 187.6784668 180.41845703 C183.04285194 176.37586986 178.70434741 172.0730782 174.37109375 167.7109375 C173.55082199 166.88925079 172.73055023 166.06756409 171.88542175 165.22097778 C169.2884227 162.61842849 166.69493409 160.01241347 164.1015625 157.40625 C162.34984253 155.64950706 160.59789148 153.89299451 158.84570312 152.13671875 C154.94517387 148.2263092 151.04554208 144.3150189 147.1522522 140.3973999 C146.00253046 139.2458515 144.84790284 138.09914877 143.68539429 136.96051025 C139.32133635 132.68388749 139.32133635 132.68388749 139.234375 129.578125 C139.70310329 123.58655473 140.91934385 120.69772592 145.2890625 116.53125 C148.80637614 114.47839742 151.73750577 113.76786418 155.79638672 113.86669922 C161.20961074 115.30987217 164.69322563 120.08833297 168.3515625 124.09375 C170.04848359 125.88889348 171.7476705 127.68189807 173.44921875 129.47265625 C174.26406738 130.33906738 175.07891602 131.20547852 175.91845703 132.09814453 C178.61482649 134.86560262 181.4379643 137.40114958 184.40014648 139.87866211 C188.74233963 143.67759004 192.66177327 147.93993752 196.66796875 152.0859375 C198.20110616 153.65588146 199.7366054 155.22347241 201.27319336 156.79003906 C202.33169195 157.87391542 203.38569341 158.96220066 204.43530273 160.0546875 C205.95960038 161.63940733 207.49929736 163.20761343 209.04296875 164.7734375 C209.95377197 165.7104248 210.8645752 166.64741211 211.80297852 167.61279297 C214.04489089 169.74839229 214.04489089 169.74839229 216.4050293 169.52441406 C218.56825783 168.38407278 219.98333955 167.16206966 221.6796875 165.3984375 C222.61445923 164.44142944 222.61445923 164.44142944 223.56811523 163.46508789 C224.21852783 162.78567139 224.86894043 162.10625488 225.5390625 161.40625 C226.8874516 160.02551379 228.23769068 158.64658162 229.58984375 157.26953125 C230.55398193 156.28654053 230.55398193 156.28654053 231.53759766 155.28369141 C234.08673918 152.73312856 236.78216651 150.39128528 239.53515625 148.06640625 C242.25716703 145.68388902 244.74835594 143.08042163 247.28515625 140.50390625 C249.87152401 137.95787171 252.6044153 135.61103443 255.35546875 133.24609375 C257.24400847 131.57120701 259.02061898 129.83177413 260.7890625 128.03125 C263.09925691 125.679524 265.46688438 123.48085735 267.9765625 121.34375 C271.59045887 118.2350974 274.94194013 114.92011357 278.2890625 111.53125 C282.20437389 107.56717248 286.18439679 103.78563486 290.4296875 100.171875 C293.18126655 97.74401113 295.71552324 95.11375081 298.2890625 92.5 C300.85211478 89.97699541 303.56252074 87.65562183 306.2890625 85.3125 C308.99752913 82.90027191 311.52058895 80.32716903 314.0390625 77.71875 C315.97797058 75.83370047 317.95703602 74.06251463 320 72.29296875 C325.2008417 67.7774626 330.15049865 63.00650769 335.109375 58.22851562 C344.66188105 49.13459908 344.66188105 49.13459908 349.44921875 48.03515625 C355.40204918 48.21850832 358.29648741 49.64937353 362.5390625 53.65625 C364.95306112 57.62210488 366.2728207 60.87529514 365.2890625 65.53125 C363.37109375 67.703125 363.37109375 67.703125 360.9140625 69.96875 C354.43498145 76.63776901 354.43498145 76.63776901 355.2890625 93.53125 C391.9190625 93.53125 428.5490625 93.53125 466.2890625 93.53125 C468.24196063 59.27645798 468.24196063 59.27645798 454.0390625 30.15625 C443.49147894 22.17903599 429.21956173 24.10613525 416.70947266 24.17089844 C413.96984383 24.17947616 411.23168644 24.15779818 408.4921875 24.1328125 C407.65770081 24.14615631 406.82321411 24.15950012 405.96343994 24.17324829 C401.76797812 24.12022736 399.09875951 23.80614628 395.77636719 21.11865234 C392.13670365 17.33251628 391.89683334 14.95176965 391.9296875 9.859375 C392.53450528 5.94120764 394.45783007 4.22766184 397.2890625 1.53125 C399.73966988 0.30594631 401.37464777 0.38469024 404.11499023 0.35424805 C405.12041367 0.34141281 406.1258371 0.32857758 407.16172791 0.31535339 C408.80063744 0.30427299 408.80063744 0.30427299 410.47265625 0.29296875 C411.59793228 0.284897 412.72320831 0.27682526 413.88258362 0.26850891 C416.27253677 0.25465342 418.66250983 0.24393785 421.05249023 0.23608398 C424.68056853 0.218967 428.30771282 0.17510427 431.93554688 0.13085938 C434.26040998 0.12072403 436.58528083 0.11221057 438.91015625 0.10546875 C439.98454453 0.08796066 441.0589328 0.07045258 442.1658783 0.05241394 C456.15871279 0.09201277 467.69238469 6.22533804 477.9765625 15.46875 C489.18475827 27.20107003 492.59792388 42.03810087 492.54975891 57.74406433 C492.55278278 59.08226605 492.55667345 60.42046604 492.56135148 61.758663 C492.57161024 65.42103173 492.56945507 69.08330232 492.56517088 72.74567902 C492.56269973 76.70152658 492.57172278 80.65735075 492.57920837 84.6131897 C492.59194762 92.35821661 492.59374994 100.10320883 492.59140811 107.84824445 C492.58962354 114.14657335 492.59137758 120.44489173 492.59563255 126.74321938 C492.59622774 127.64037446 492.59682293 128.53752955 492.59743616 129.46187115 C492.59864794 131.28460937 492.59986208 133.1073476 492.60107853 134.93008582 C492.61195157 152.01902829 492.60979299 169.10795103 492.60369369 186.19689462 C492.59852756 201.81398978 492.60977236 217.43102251 492.62879191 233.04810532 C492.64818806 249.09799339 492.65642301 265.14785196 492.65266865 281.19775182 C492.65075895 290.20272425 492.65322147 299.20764358 492.66738319 308.21260643 C492.6793208 315.8807724 492.68067544 323.54885261 492.66859303 331.21701982 C492.66272035 335.12548096 492.66155992 339.03378541 492.67359543 342.94223595 C492.68450898 346.52819968 492.68128664 350.11387695 492.66733374 353.69982759 C492.66346575 355.59463341 492.67418923 357.48945223 492.68563062 359.38422745 C492.57824892 376.56539971 487.67932928 390.81079114 475.66015625 403.31640625 C464.23156023 413.99188227 451.03729364 418.7022767 435.4830761 418.66267776 C434.34474831 418.66575672 434.34474831 418.66575672 433.183424 418.66889787 C430.64390314 418.67454628 428.1044369 418.67311329 425.56491089 418.67169189 C423.72434811 418.67427677 421.8837859 418.67729027 420.04322445 418.6806953 C414.98763157 418.68875416 409.9320529 418.69055425 404.87645435 418.69129276 C399.42296786 418.69314525 393.96948871 418.70069355 388.51600647 418.70742798 C376.59237567 418.72100374 364.66874823 418.72703479 352.74511099 418.73143864 C345.29866178 418.73420224 337.85221387 418.7384398 330.40576553 418.74294281 C309.78484872 418.75513429 289.16393295 418.76543397 268.54301262 418.7688179 C267.22350654 418.76903747 265.90400047 418.76925703 264.54450936 418.76948325 C263.20850524 418.76970389 261.87250112 418.76992437 260.536497 418.7701447 C257.85636258 418.77058725 255.17622817 418.77103436 252.49609375 418.77148438 C251.83157914 418.77159377 251.16706453 418.77170316 250.48241311 418.77181586 C228.93973725 418.77544579 207.39709506 418.79136443 185.8544321 418.81467474 C163.06470441 418.83928925 140.27499323 418.85298477 117.48525155 418.85418582 C105.06754026 418.85510218 92.64987306 418.8608448 80.23217392 418.87900543 C69.65813019 418.89441539 59.08414418 418.89952155 48.51009135 418.89126733 C43.11712907 418.88736408 37.724283 418.88827465 32.33133507 418.90232468 C27.38900348 418.91508275 22.44687518 418.91384927 17.5045438 418.90173396 C15.72189363 418.89978029 13.93922897 418.90284009 12.15659915 418.91157833 C-6.78285792 418.99849809 -22.97203505 415.97618111 -37.1640625 402.37890625 C-50.68159664 387.26497621 -53.0293197 370.45493635 -52.97836304 350.78672791 C-52.98515971 348.82243838 -52.98515971 348.82243838 -52.99209368 346.81846625 C-53.00419382 343.22666544 -53.00407882 339.63495867 -53.00170493 336.0431422 C-53.00129346 332.15283682 -53.01236672 328.26256028 -53.02182007 324.37226868 C-53.0383568 316.76843824 -53.04392618 309.16463883 -53.04504482 301.5607919 C-53.04599828 295.37749921 -53.05012335 289.19421668 -53.05644608 283.0109272 C-53.07403431 265.45148065 -53.08328811 247.89205845 -53.08178513 230.33260303 C-53.08170522 229.38809549 -53.0816253 228.44358796 -53.08154297 227.47045898 C-53.08146121 226.52478931 -53.08137945 225.57911964 -53.08129521 224.60479332 C-53.0804818 209.26935628 -53.09963964 193.93401733 -53.1278197 178.59860867 C-53.15657623 162.82425259 -53.17035864 147.04994433 -53.16863215 131.27556139 C-53.16796947 122.43050615 -53.17340907 113.58555392 -53.19498825 104.74052238 C-53.21323598 97.21338584 -53.21751755 89.68639909 -53.2039694 82.15924995 C-53.19745935 78.32360754 -53.19725123 74.48825222 -53.2146759 70.65263748 C-53.23341593 66.48447276 -53.22080216 62.31696689 -53.20541382 58.14878845 C-53.21570094 56.95110161 -53.22598807 55.75341477 -53.23658693 54.51943439 C-53.11165736 39.14450432 -47.54658086 24.83911529 -36.96875 13.59765625 C-26.28507811 3.81969357 -14.2648198 -0.10417479 0 0 Z M-26.7109375 111.53125 C-26.81127616 114.02078697 -26.84711693 116.48259953 -26.84033203 118.97265625 C-26.84208435 119.75148163 -26.84383667 120.53030701 -26.84564209 121.33273315 C-26.85006099 123.91976111 -26.84712249 126.50672129 -26.84375 129.09375 C-26.84442303 130.88354506 -26.84539304 132.67334002 -26.84664917 134.46313477 C-26.84812619 138.21924711 -26.84597144 141.97533572 -26.84130859 145.73144531 C-26.8356113 150.55725493 -26.83889028 155.38300895 -26.84488106 160.20881653 C-26.84848655 163.90613223 -26.84734814 167.60343464 -26.84475327 171.30075073 C-26.84408396 173.08063768 -26.84491253 174.86052582 -26.84723282 176.64041138 C-26.84975915 179.12358822 -26.84591904 181.60667374 -26.84033203 184.08984375 C-26.84235626 184.83273651 -26.84438049 185.57562927 -26.84646606 186.34103394 C-27.132522 189.72247214 -27.132522 189.72247214 -25.7109375 192.53125 C-22.97158231 192.63769352 -20.26329766 192.67118112 -17.5234375 192.65625 C-16.23711426 192.65334961 -16.23711426 192.65334961 -14.92480469 192.65039062 C-1.84901451 192.56841075 11.22351786 192.02349898 24.2890625 191.53125 C24.32644531 190.36207031 24.36382812 189.19289063 24.40234375 187.98828125 C24.4680253 186.44007325 24.53447189 184.89189758 24.6015625 183.34375 C24.62412109 182.57482422 24.64667969 181.80589844 24.66992188 181.01367188 C24.88669601 176.42200147 25.34767144 173.2715374 28.2890625 169.53125 C31.64726067 167.85215091 34.99781127 168.13670101 38.5390625 169.21875 C40.2890625 170.53125 40.2890625 170.53125 42.2890625 175.53125 C42.7840625 183.45125 42.7840625 183.45125 43.2890625 191.53125 C56.8190625 191.53125 70.3490625 191.53125 84.2890625 191.53125 C84.2890625 165.13125 84.2890625 138.73125 84.2890625 111.53125 C77.29533066 110.70072573 77.29533066 110.70072573 70.37915039 110.40426636 C69.51839401 110.40144653 68.65763763 110.39862671 67.77079773 110.39572144 C66.40505363 110.39875778 66.40505363 110.39875778 65.01171875 110.40185547 C64.02690018 110.40010315 63.0420816 110.39835083 62.02742004 110.39654541 C58.8021158 110.39217629 55.57686721 110.39504555 52.3515625 110.3984375 C50.1023762 110.39776347 47.85318996 110.39679262 45.60400391 110.39553833 C40.9070567 110.39406843 36.21012858 110.39619475 31.51318359 110.40087891 C25.47916665 110.40660213 19.44519394 110.4032764 13.41117859 110.39730644 C8.77540754 110.3937041 4.13964709 110.39483744 -0.49612427 110.39743423 C-2.7225851 110.39810305 -4.94904687 110.39727664 -7.17550659 110.39495468 C-10.27328068 110.3924307 -13.37098142 110.39626392 -16.46875 110.40185547 C-17.39543991 110.39983124 -18.32212982 110.39780701 -19.27690125 110.39572144 C-23.3143985 109.99959653 -23.3143985 109.99959653 -26.7109375 111.53125 Z M354.2890625 111.53125 C354.19403834 114.02617388 354.16348684 116.49331014 354.17553711 118.98852539 C354.17539108 119.76895706 354.17524506 120.54938873 354.1750946 121.35346985 C354.17579392 123.9453098 354.18358714 126.53707878 354.19140625 129.12890625 C354.19327037 130.9210964 354.1946943 132.71328706 354.19569397 134.50547791 C354.19951966 139.23195797 354.20935038 143.95840752 354.22039795 148.68487549 C354.23240531 154.35080586 354.23701407 160.01674641 354.24285126 165.68268585 C354.25256211 174.29889516 354.2717183 182.91503743 354.2890625 191.53125 C368.4790625 191.53125 382.6690625 191.53125 397.2890625 191.53125 C397.6190625 185.26125 397.9490625 178.99125 398.2890625 172.53125 C402.21929506 168.60101744 402.21929506 168.60101744 406.1640625 168.34375 C409.26915404 168.53005549 410.82083036 168.6800759 413.2890625 170.53125 C415.2890625 175.53125 415.2890625 175.53125 416.2890625 191.53125 C440.5440625 192.02625 440.5440625 192.02625 465.2890625 192.53125 C466.80049586 189.50838327 466.42765057 186.38334725 466.41845703 183.06811523 C466.42020935 182.2988974 466.42196167 181.52967957 466.42376709 180.7371521 C466.4281777 178.18802654 466.42525068 175.63897004 466.421875 173.08984375 C466.4225482 171.32389818 466.42351835 169.5579527 466.42477417 167.79200745 C466.42625001 164.08894978 466.42409996 160.3859162 466.41943359 156.68286133 C466.41373221 151.92546137 466.41701862 147.16811777 466.42300606 142.41071987 C466.42661117 138.76401847 466.42547339 135.11733054 466.42287827 131.47062874 C466.42220907 129.71586157 466.42303715 127.9610932 466.42535782 126.20632744 C466.42788399 123.75918183 466.42404447 121.3121289 466.41845703 118.86499023 C466.42149338 117.76703377 466.42149338 117.76703377 466.42459106 116.64689636 C466.70379188 113.30459561 466.70379188 113.30459561 465.2890625 110.53125 C463.8619263 110.43354799 462.4299882 110.40493305 460.99951172 110.40426636 C459.61128204 110.40003662 459.61128204 110.40003662 458.19500732 110.39572144 C457.17159241 110.39774567 456.14817749 110.3997699 455.09375 110.40185547 C453.48660126 110.39922699 453.48660126 110.39922699 451.84698486 110.39654541 C448.28599453 110.39212447 444.72505339 110.39506574 441.1640625 110.3984375 C438.70166006 110.39776453 436.23925768 110.39679456 433.77685547 110.39553833 C428.60839202 110.39406103 423.43994582 110.39621695 418.27148438 110.40087891 C411.62965523 110.4065762 404.98786648 110.40329737 398.34603882 110.39730644 C393.25903008 110.3937017 388.172031 110.39483901 383.08502197 110.39743423 C380.6352742 110.39810375 378.18552557 110.39727425 375.73577881 110.39495468 C372.3186204 110.39242958 368.90152843 110.39626674 365.484375 110.40185547 C363.94925262 110.39881912 363.94925262 110.39881912 362.38311768 110.39572144 C361.45763123 110.39854126 360.53214478 110.40136108 359.57861328 110.40426636 C358.36517746 110.4048319 358.36517746 110.4048319 357.12722778 110.40540886 C355.27104756 110.33021163 355.27104756 110.33021163 354.2890625 111.53125 Z M-26.7109375 210.53125 C-26.90913032 212.98967922 -26.98375708 215.33544599 -26.96972656 217.79492188 C-26.9732312 218.54302628 -26.97673584 219.29113068 -26.98034668 220.06190491 C-26.9891684 222.54136359 -26.98331339 225.02053828 -26.9765625 227.5 C-26.97790903 229.21870987 -26.97984945 230.93741937 -26.98236084 232.65612793 C-26.9853127 236.2608604 -26.98101251 239.86549386 -26.97167969 243.47021484 C-26.96028509 248.0975406 -26.96684424 252.72463436 -26.97882462 257.3519516 C-26.98604157 260.90177162 -26.98375605 264.45153637 -26.97856903 268.00135803 C-26.97723208 269.70785042 -26.97888185 271.41434777 -26.98352814 273.12083435 C-26.98859072 275.50321805 -26.98088716 277.88522275 -26.96972656 280.26757812 C-26.97377502 280.97725235 -26.97782349 281.68692657 -26.98199463 282.41810608 C-27.05456437 286.42076798 -27.05456437 286.42076798 -24.7109375 289.53125 C-22.67189668 289.82970394 -22.67189668 289.82970394 -20.30883789 289.77416992 C-19.39771744 289.77724655 -18.48659698 289.78032318 -17.54786682 289.78349304 C-16.56140671 289.77630753 -15.57494659 289.76912201 -14.55859375 289.76171875 C-13.5475206 289.76126053 -12.53644745 289.76080231 -11.49473572 289.7603302 C-9.3536563 289.75730542 -7.21257913 289.74941243 -5.0715332 289.73706055 C-1.79044816 289.71884444 1.49035413 289.71655056 4.77148438 289.71679688 C6.84896078 289.71188019 8.92643526 289.70605121 11.00390625 289.69921875 C11.98834213 289.69810593 12.97277802 289.6969931 13.98704529 289.69584656 C14.9013179 289.68946671 15.81559052 289.68308685 16.75756836 289.67651367 C17.56205917 289.67270187 18.36654999 289.66889008 19.19541931 289.66496277 C21.48332869 289.60822756 21.48332869 289.60822756 24.2890625 288.53125 C24.2984082 287.97663086 24.30775391 287.42201172 24.31738281 286.85058594 C24.37121972 284.32658519 24.45483504 281.80441186 24.5390625 279.28125 C24.55324219 278.40855469 24.56742188 277.53585937 24.58203125 276.63671875 C24.82920436 270.16078326 24.82920436 270.16078326 27.15234375 266.98046875 C29.96481214 265.07292621 31.89118189 264.6005945 35.2890625 264.53125 C39.12785537 266.18891056 40.72358199 267.71641663 42.2890625 271.53125 C42.60791016 273.63769531 42.60791016 273.63769531 42.703125 275.859375 C42.74179687 276.65859375 42.78046875 277.4578125 42.8203125 278.28125 C42.85125 279.10625 42.8821875 279.93125 42.9140625 280.78125 C42.95273437 281.62171875 42.99140625 282.4621875 43.03125 283.328125 C43.12522086 285.39548382 43.20821814 287.46333627 43.2890625 289.53125 C49.25219416 289.55589574 55.21529645 289.574084 61.1784668 289.58618164 C63.20874548 289.59122278 65.23902052 289.59805557 67.26928711 289.60668945 C70.18083597 289.61876467 73.092337 289.62448034 76.00390625 289.62890625 C76.9174437 289.63406754 77.83098114 289.63922882 78.77220154 289.64454651 C80.94481677 289.64474168 83.11733546 289.59336805 85.2890625 289.53125 C87.06950155 287.75081095 86.41905533 285.1095406 86.4296875 282.703125 C86.45869141 280.91455078 86.45869141 280.91455078 86.48828125 279.08984375 C86.52192497 276.56656469 86.54034829 274.04303323 86.54296875 271.51953125 C86.75303423 261.24843498 86.75303423 261.24843498 89.609375 258.171875 C92.2890625 256.53125 92.2890625 256.53125 95.9140625 256.53125 C99.10491437 257.47668759 100.39093692 257.89496447 102.2890625 260.53125 C103.62809794 263.20932088 103.48571652 265.38407366 103.5703125 268.37890625 C103.62638672 270.12204102 103.62638672 270.12204102 103.68359375 271.90039062 C103.75401771 274.36653328 103.82432986 276.83267913 103.89453125 279.29882812 C103.95060547 281.0400293 103.95060547 281.0400293 104.0078125 282.81640625 C104.03810547 283.88769775 104.06839844 284.95898926 104.09960938 286.06274414 C104.01532742 288.4744894 104.01532742 288.4744894 105.2890625 289.53125 C108.37987715 289.6324192 111.44788805 289.67093558 114.5390625 289.6640625 C115.46750977 289.66501923 116.39595703 289.66597595 117.35253906 289.66696167 C119.31966215 289.66764355 121.28678746 289.66578872 123.25390625 289.66162109 C126.27609276 289.65627295 129.29813065 289.66156582 132.3203125 289.66796875 C134.22656283 289.66730797 136.13281307 289.66602681 138.0390625 289.6640625 C139.40466309 289.66709885 139.40466309 289.66709885 140.79785156 289.67019653 C144.86569928 290.07016332 144.86569928 290.07016332 148.2890625 288.53125 C148.52708044 284.76452172 148.68515769 281.00431893 148.80664062 277.23242188 C148.84080078 276.43771484 148.87496094 275.64300781 148.91015625 274.82421875 C148.94774048 273.73403442 148.94774048 273.73403442 148.98608398 272.62182617 C149.33404575 270.22086198 150.01935163 268.59303842 151.2890625 266.53125 C154.24663842 264.80599738 155.9836231 264.51292364 159.4140625 264.71875 C162.37422374 265.55531731 163.50062701 266.08391723 165.2890625 268.53125 C166.17545639 271.19043166 166.46895275 273.01189641 166.60546875 275.76171875 C166.66831055 276.96538086 166.66831055 276.96538086 166.73242188 278.19335938 C166.77173828 279.02673828 166.81105469 279.86011719 166.8515625 280.71875 C166.89474609 281.56373047 166.93792969 282.40871094 166.98242188 283.27929688 C167.08837768 285.36309433 167.1892127 287.44715103 167.2890625 289.53125 C173.3946096 289.55589513 179.50012801 289.57408371 185.60571289 289.58618164 C187.68449406 289.59122288 189.76327166 289.59805574 191.84204102 289.60668945 C194.82308836 289.61876422 197.80408899 289.62448024 200.78515625 289.62890625 C201.72056747 289.63406754 202.6559787 289.63922882 203.61973572 289.64454651 C204.48055252 289.64462204 205.34136932 289.64469757 206.22827148 289.64477539 C207.37077614 289.64810631 207.37077614 289.64810631 208.53636169 289.65150452 C210.31716855 289.72215955 210.31716855 289.72215955 211.2890625 288.53125 C211.4095088 287.07880932 211.46854378 285.62114924 211.5 284.1640625 C211.52835938 283.27847656 211.55671875 282.39289063 211.5859375 281.48046875 C211.63779934 279.60566336 211.6821359 277.73063389 211.71875 275.85546875 C211.7496875 274.96730469 211.780625 274.07914063 211.8125 273.1640625 C211.83231934 272.34824707 211.85213867 271.53243164 211.87255859 270.69189453 C212.38651733 268.02569592 213.13714257 267.15065881 215.2890625 265.53125 C219.25180126 264.50387329 221.40033223 264.12552531 225.1640625 265.84375 C227.2890625 267.53125 227.2890625 267.53125 228.2890625 269.53125 C228.42811392 270.96638247 228.51429683 272.40689161 228.5703125 273.84765625 C228.62638672 275.11706055 228.62638672 275.11706055 228.68359375 276.41210938 C228.75405965 278.20377002 228.82437148 279.99543672 228.89453125 281.78710938 C228.95060547 283.05458008 228.95060547 283.05458008 229.0078125 284.34765625 C229.03810547 285.12568604 229.06839844 285.90371582 229.09960938 286.70532227 C229.09704486 288.54935083 229.09704486 288.54935083 230.2890625 289.53125 C233.29545553 289.63241109 236.27839547 289.67093674 239.28515625 289.6640625 C240.1890358 289.66501923 241.09291534 289.66597595 242.02418518 289.66696167 C243.94003366 289.6676436 245.85588444 289.66578841 247.77172852 289.66162109 C250.71050192 289.65627919 253.64912205 289.66156245 256.58789062 289.66796875 C258.44531284 289.66730785 260.30273496 289.66602644 262.16015625 289.6640625 C263.48520424 289.66709885 263.48520424 289.66709885 264.83702087 289.67019653 C269.1996972 289.78967746 269.1996972 289.78967746 273.2890625 288.53125 C273.2984082 287.97663086 273.30775391 287.42201172 273.31738281 286.85058594 C273.37121972 284.32658519 273.45483504 281.80441186 273.5390625 279.28125 C273.55324219 278.40855469 273.56742188 277.53585937 273.58203125 276.63671875 C273.82920436 270.16078326 273.82920436 270.16078326 276.15234375 266.98046875 C278.96481214 265.07292621 280.89118189 264.6005945 284.2890625 264.53125 C288.12785537 266.18891056 289.72358199 267.71641663 291.2890625 271.53125 C291.60791016 273.63769531 291.60791016 273.63769531 291.703125 275.859375 C291.74179687 276.65859375 291.78046875 277.4578125 291.8203125 278.28125 C291.86671875 279.51875 291.86671875 279.51875 291.9140625 280.78125 C291.95273437 281.62171875 291.99140625 282.4621875 292.03125 283.328125 C292.12522086 285.39548382 292.20821814 287.46333627 292.2890625 289.53125 C297.59097964 289.55604671 302.8928627 289.57415578 308.19482422 289.58618164 C309.99691354 289.59119733 311.79899881 289.59801146 313.60107422 289.60668945 C316.19760132 289.61887636 318.79407442 289.62450606 321.390625 289.62890625 C322.1908609 289.63406754 322.9910968 289.63922882 323.81558228 289.64454651 C328.08897417 289.64497102 332.07943436 289.38200701 336.2890625 288.53125 C336.31411865 287.69875732 336.3391748 286.86626465 336.36499023 286.00854492 C336.46018944 282.91662167 336.55941922 279.82486148 336.66137695 276.7331543 C336.72593256 274.73821681 336.7858408 272.74313071 336.84570312 270.74804688 C336.88759766 269.49443359 336.92949219 268.24082031 336.97265625 266.94921875 C337.00931396 265.79188232 337.04597168 264.6345459 337.08374023 263.44213867 C337.2890625 260.53125 337.2890625 260.53125 338.2890625 257.53125 C339.86919467 257.28096189 341.45348556 257.05684054 343.0390625 256.84375 C344.36164063 256.65232422 344.36164063 256.65232422 345.7109375 256.45703125 C348.90154551 256.54888209 350.03793592 257.31561416 352.2890625 259.53125 C353.36861462 262.76990635 353.49347991 265.32280838 353.60546875 268.73046875 C353.64736328 269.93896484 353.68925781 271.14746094 353.73242188 272.39257812 C353.77173828 273.65521484 353.81105469 274.91785156 353.8515625 276.21875 C353.89474609 277.49298828 353.93792969 278.76722656 353.98242188 280.08007812 C354.0886111 283.23035852 354.19065783 286.38071839 354.2890625 289.53125 C360.25219416 289.55589574 366.21529645 289.574084 372.1784668 289.58618164 C374.20874548 289.59122278 376.23902052 289.59805557 378.26928711 289.60668945 C381.18083597 289.61876467 384.092337 289.62448034 387.00390625 289.62890625 C387.9174437 289.63406754 388.83098114 289.63922882 389.77220154 289.64454651 C391.94481677 289.64474168 394.11733546 289.59336805 396.2890625 289.53125 C397.82206364 287.99824886 397.45103086 286.55172021 397.5 284.41796875 C397.52835938 283.58201172 397.55671875 282.74605469 397.5859375 281.88476562 C397.63767148 280.11934354 397.68204446 278.3536891 397.71875 276.58789062 C397.95511192 270.17164935 397.95511192 270.17164935 399.6171875 266.984375 C402.34497651 264.61349296 404.75370129 264.5922045 408.2890625 264.53125 C411.37457876 265.76545651 412.82209937 266.65216282 414.38671875 269.59765625 C415.59216833 273.51667198 415.74994297 277.26469579 415.9140625 281.34375 C415.95273437 282.13201172 415.99140625 282.92027344 416.03125 283.73242188 C416.12495094 285.6650038 416.20807029 287.59809376 416.2890625 289.53125 C423.08834669 289.5818394 429.8875826 289.61693667 436.68701172 289.64111328 C439.00148329 289.65118892 441.31594209 289.66484975 443.63037109 289.68212891 C446.95152943 289.70630865 450.2725199 289.7177173 453.59375 289.7265625 C454.63336884 289.73688507 455.67298767 289.74720764 456.74411011 289.75784302 C458.18537766 289.75806961 458.18537766 289.75806961 459.65576172 289.75830078 C460.50403534 289.762742 461.35230896 289.76718323 462.22628784 289.77175903 C464.51254795 289.72140361 464.51254795 289.72140361 466.2890625 287.53125 C466.4768326 285.03162754 466.54100321 282.64380803 466.51611328 280.14404297 C466.51655136 279.00243713 466.51655136 279.00243713 466.51699829 277.83776855 C466.51560231 275.31620984 466.50002868 272.79494475 466.484375 270.2734375 C466.48064582 268.52751833 466.4777984 266.78159706 466.47579956 265.03567505 C466.46815561 260.4357528 466.44850063 255.83595643 466.4263916 251.23608398 C466.40594954 246.5441254 466.39680136 241.85214651 466.38671875 237.16015625 C466.36525542 227.95046546 466.33111033 218.74086819 466.2890625 209.53125 C463.40943416 208.57137389 461.62278809 208.40971186 458.6340332 208.41772461 C457.69328445 208.41780014 456.75253571 208.41787567 455.78327942 208.41795349 C454.26440376 208.42569542 454.26440376 208.42569542 452.71484375 208.43359375 C451.15638985 208.43571617 451.15638985 208.43571617 449.56645203 208.43788147 C446.24479302 208.44348344 442.92320117 208.45603628 439.6015625 208.46875 C437.35091243 208.47376475 435.10026131 208.4783277 432.84960938 208.48242188 C427.32940413 208.49345351 421.80923811 208.51019357 416.2890625 208.53125 C414.87440341 211.36056817 415.16139562 213.76920137 415.1484375 216.9296875 C415.12910156 218.21359375 415.10976563 219.4975 415.08984375 220.8203125 C415.06087872 222.86357418 415.03906262 224.90573843 415.03857422 226.94921875 C415.0352353 228.92204192 414.99848951 230.89471893 414.9609375 232.8671875 C414.94691895 234.63908447 414.94691895 234.63908447 414.93261719 236.44677734 C414.2890625 239.53125 414.2890625 239.53125 411.96972656 241.91650391 C408.45194386 244.03550344 406.32972092 244.11898213 402.2890625 243.53125 C399.24760551 241.29948509 398.38304762 240.097282 397.7590332 236.33911133 C397.73715942 234.49482544 397.73715942 234.49482544 397.71484375 232.61328125 C397.69359688 231.62650642 397.69359688 231.62650642 397.67192078 230.61979675 C397.63012339 228.52761291 397.61479578 226.43629208 397.6015625 224.34375 C397.57252617 222.2408959 397.538043 220.13826088 397.49906921 218.03556824 C397.46630625 216.13559381 397.44826313 214.23538271 397.4309082 212.33520508 C397.60802592 209.62672059 397.60802592 209.62672059 396.2890625 208.53125 C394.7509979 208.41198957 393.20755227 208.36115578 391.66503906 208.33837891 C390.68021545 208.32231598 389.69539185 208.30625305 388.6807251 208.28970337 C384.16248117 208.24538191 379.64438701 208.20417371 375.12597656 208.18115234 C372.74176264 208.16459981 370.35759819 208.13731939 367.97363281 208.09912109 C364.54205488 208.04438719 361.11164304 208.02248112 357.6796875 208.0078125 C356.08256927 207.97380844 356.08256927 207.97380844 354.45318604 207.93911743 C348.34956569 207.9125881 348.34956569 207.9125881 343.18139648 210.94384766 C342.55692627 211.79769043 341.93245605 212.6515332 341.2890625 213.53125 C340.46341797 214.48257813 340.46341797 214.48257813 339.62109375 215.453125 C339.11964844 216.05640625 338.61820313 216.6596875 338.1015625 217.28125 C324.22924647 233.15668062 308.10234421 241.14143145 287.2890625 243.53125 C282.75331964 243.78880327 278.23269803 243.81537331 273.69042969 243.8059082 C272.39910629 243.81101913 271.1077829 243.81613007 269.77732849 243.82139587 C266.2749729 243.83464027 262.77272616 243.83538086 259.27035046 243.83283257 C256.32617801 243.83175254 253.38202668 243.83667247 250.43785882 243.841438 C243.47987766 243.85248359 236.5219505 243.85299911 229.56396484 243.84692383 C222.43338332 243.84089264 215.30299955 243.85318469 208.17245173 243.8744939 C202.00805573 243.89222491 195.843722 243.89809318 189.6793015 243.89485615 C186.0163377 243.89306082 182.35351488 243.89550082 178.69057465 243.90957069 C152.11362463 244.00284827 127.85643273 242.93214002 106.98046875 224.26953125 C102.90498638 220.08110248 99.04590007 215.39915679 95.99064636 210.41168213 C94.44032769 208.32787131 94.44032769 208.32787131 91.99214172 208.05023193 C90.64312019 208.0635556 90.64312019 208.0635556 89.2668457 208.07714844 C88.24601395 208.07745056 87.22518219 208.07775269 86.17341614 208.07806396 C85.07333725 208.09870911 83.97325836 208.11935425 82.83984375 208.140625 C81.7120903 208.14628479 80.58433685 208.15194458 79.42240906 208.15777588 C75.81503115 208.18019369 72.20864097 208.23040216 68.6015625 208.28125 C66.15821745 208.30130791 63.71485686 208.31955991 61.27148438 208.3359375 C55.27700588 208.38007621 49.28310474 208.44704269 43.2890625 208.53125 C43.24942383 209.44938477 43.20978516 210.36751953 43.16894531 211.31347656 C43.0124869 214.72876497 42.8391146 218.14232661 42.65429688 221.55615234 C42.5778622 223.03205413 42.50813024 224.50831925 42.4453125 225.98486328 C42.35368021 228.11101882 42.2377793 230.23468918 42.1171875 232.359375 C42.0543457 233.6371582 41.99150391 234.91494141 41.92675781 236.23144531 C41.20068597 239.98856132 40.28948222 241.23429656 37.2890625 243.53125 C35.2890625 244.09765625 35.2890625 244.09765625 33.2890625 244.09375 C32.2990625 244.12662109 32.2990625 244.12662109 31.2890625 244.16015625 C28.13187417 243.16736851 27.08840059 241.24724935 25.2890625 238.53125 C24.74316406 235.30151367 24.74316406 235.30151367 24.6796875 231.69921875 C24.64746094 230.40693359 24.61523438 229.11464844 24.58203125 227.78320312 C24.567289 226.42838991 24.55297138 225.07357202 24.5390625 223.71875 C24.51088491 222.34436361 24.48095496 220.97001195 24.44921875 219.59570312 C24.37858976 216.2408259 24.32585476 212.88664104 24.2890625 209.53125 C17.34765422 209.33797109 10.40597278 209.1604881 3.46386719 208.99414062 C1.10081782 208.93563321 -1.2621439 208.87346941 -3.625 208.80761719 C-7.01546268 208.71375371 -10.40602009 208.63291499 -13.796875 208.5546875 C-14.85836761 208.52249115 -15.91986023 208.4902948 -17.01351929 208.4571228 C-18.48481796 208.42686508 -18.48481796 208.42686508 -19.98583984 208.39599609 C-20.85187836 208.37378998 -21.71791687 208.35158386 -22.61019897 208.32870483 C-24.93144359 208.32776874 -24.93144359 208.32776874 -26.7109375 210.53125 Z M-26.7109375 307.53125 C-27.01762694 309.9676365 -27.01762694 309.9676365 -26.96972656 312.83203125 C-26.97603088 313.94078613 -26.98233521 315.04954102 -26.98883057 316.19189453 C-26.9847821 317.39700684 -26.98073364 318.60211914 -26.9765625 319.84375 C-26.97847595 321.08237793 -26.9803894 322.32100586 -26.98236084 323.59716797 C-26.98372479 326.22686569 -26.98101418 328.8561946 -26.97167969 331.48583984 C-26.96261403 334.16854729 -26.96248981 336.85098443 -26.97167969 339.53369141 C-26.98411714 343.40795888 -26.98251079 347.28197128 -26.9765625 351.15625 C-26.98061096 352.34516846 -26.98465942 353.53408691 -26.98883057 354.7590332 C-26.92587896 366.08227654 -25.8828528 376.46188783 -18.1796875 385.28515625 C-7.93234548 394.92829178 4.37095867 394.06968382 17.515625 393.921875 C19.47430847 393.9144038 21.43299947 393.90871502 23.39169312 393.90472412 C28.51773134 393.88953701 33.64330779 393.85031563 38.76916504 393.8059082 C44.01141109 393.76480532 49.2537326 393.74668117 54.49609375 393.7265625 C64.76061825 393.68381406 75.0248018 393.61564761 85.2890625 393.53125 C86.87022275 390.3689295 86.41843372 386.97283293 86.40258789 383.50146484 C86.40273392 382.67211929 86.40287994 381.84277374 86.4030304 380.98829651 C86.40233221 378.23956715 86.39454421 375.49090506 86.38671875 372.7421875 C86.38485424 370.83932533 86.38343049 368.93646268 86.38243103 367.03359985 C86.37860849 362.01943644 86.36878043 357.00530189 86.35772705 351.9911499 C86.34750729 346.87691641 86.3429322 341.76267826 86.33789062 336.6484375 C86.32715795 326.60936231 86.31008466 316.57030855 86.2890625 306.53125 C82.86153026 304.81748388 78.93109506 305.3897964 75.16015625 305.3984375 C74.25531998 305.39748077 73.3504837 305.39652405 72.41822815 305.39553833 C70.50415986 305.39485727 68.59008926 305.39670639 66.67602539 305.40087891 C63.73513646 305.40623439 60.79439983 305.40092822 57.85351562 305.39453125 C55.99739549 305.39519192 54.14127546 305.39647286 52.28515625 305.3984375 C51.39976669 305.39641327 50.51437714 305.39438904 49.60215759 305.39230347 C45.62870957 305.00765624 45.62870957 305.00765624 42.2890625 306.53125 C42.23762068 308.90957691 42.24724305 311.25992438 42.296875 313.63671875 C42.31440677 315.11001897 42.33131354 316.58332674 42.34765625 318.05664062 C42.37850496 320.38278035 42.41385804 322.70854324 42.46044922 325.03442383 C42.50304457 327.27690169 42.52631072 329.51894459 42.546875 331.76171875 C42.57480637 332.79331367 42.57480637 332.79331367 42.603302 333.8457489 C42.62766114 338.47885059 41.74087856 341.60425174 39.2890625 345.53125 C35.28635315 347.53260467 30.40915932 346.90461561 26.2890625 345.53125 C24.69564086 341.80957634 25.0622581 337.478258 24.97265625 333.484375 C24.95187515 332.71317322 24.93109406 331.94197144 24.90968323 331.1473999 C24.84447678 328.69210428 24.78543766 326.23670479 24.7265625 323.78125 C24.68334976 322.11327065 24.6397346 320.44530168 24.59570312 318.77734375 C24.48882514 314.69541804 24.38747684 310.61338818 24.2890625 306.53125 C17.34765422 306.33797109 10.40597278 306.1604881 3.46386719 305.99414062 C1.10081782 305.93563321 -1.2621439 305.87346941 -3.625 305.80761719 C-7.01546268 305.71375371 -10.40602009 305.63291499 -13.796875 305.5546875 C-14.85836761 305.52249115 -15.91986023 305.4902948 -17.01351929 305.4571228 C-18.48481796 305.42686508 -18.48481796 305.42686508 -19.98583984 305.39599609 C-20.85187836 305.37378998 -21.71791687 305.35158386 -22.61019897 305.32870483 C-24.93144359 305.32776874 -24.93144359 305.32776874 -26.7109375 307.53125 Z M104.2890625 306.53125 C104.18861197 309.20375067 104.15289601 311.85043581 104.15966797 314.5234375 C104.15791565 315.3607843 104.15616333 316.1981311 104.15435791 317.06085205 C104.14993849 319.84267214 104.1528777 322.62442921 104.15625 325.40625 C104.15557699 327.33056653 104.15460698 329.25488298 104.15335083 331.17919922 C104.15187373 335.21778165 104.15402879 339.256342 104.15869141 343.29492188 C104.1643887 348.48393511 104.16110976 353.67289663 104.15511894 358.86190796 C104.15151364 362.8371622 104.15265177 366.81240409 104.15524673 370.78765869 C104.15591609 372.7015178 104.15508728 374.61537802 104.15276718 376.52923584 C104.15024117 379.1992085 104.15408052 381.8690962 104.15966797 384.5390625 C104.15764374 385.33805969 104.15561951 386.13705688 104.15353394 386.96026611 C103.83289241 390.54189204 103.83289241 390.54189204 105.2890625 393.53125 C106.63780304 393.63086401 107.99169007 393.66199395 109.34410095 393.66496277 C110.6544355 393.67136024 110.6544355 393.67136024 111.99124146 393.67788696 C113.43985062 393.67720718 113.43985062 393.67720718 114.91772461 393.67651367 C115.92902939 393.67987228 116.94033417 393.6832309 117.98228455 393.68669128 C121.34367075 393.69623309 124.70500732 393.698146 128.06640625 393.69921875 C130.39189169 393.70242903 132.71737693 393.70579292 135.04286194 393.70930481 C139.92465687 393.71530413 144.80643407 393.71714388 149.68823242 393.71655273 C155.95782271 393.71645105 162.2272999 393.73010594 168.49686337 393.74732494 C173.30168688 393.75841827 178.10648281 393.76047277 182.91131783 393.75994301 C185.22347974 393.76112706 187.53564228 393.76557243 189.84779167 393.77327538 C193.07561138 393.78302181 196.30318254 393.78021847 199.53100586 393.77416992 C200.97657867 393.78259918 200.97657867 393.78259918 202.45135498 393.79119873 C203.76591927 393.784907 203.76591927 393.784907 205.10704041 393.77848816 C205.87082976 393.77903293 206.63461912 393.77957769 207.42155361 393.78013897 C209.53430149 393.69100902 209.53430149 393.69100902 211.2890625 391.53125 C211.47709203 388.82041342 211.54086423 386.21257726 211.51611328 383.50146484 C211.51640533 382.67211929 211.51669739 381.84277374 211.51699829 380.98829651 C211.51560189 378.23948808 211.50002618 375.49094873 211.484375 372.7421875 C211.48064597 370.83932646 211.47779848 368.9364635 211.47579956 367.03359985 C211.46815442 362.01939617 211.44849839 357.00530791 211.4263916 351.9911499 C211.40236 345.97813299 211.39315639 339.96507754 211.38148499 333.95202637 C211.36207448 324.81168724 211.32375806 315.67160149 211.2890625 306.53125 C196.7690625 306.53125 182.2490625 306.53125 167.2890625 306.53125 C167.07936506 317.12106814 167.07936506 317.12106814 166.90112305 327.71142578 C166.86880469 329.04983242 166.83542698 330.38821408 166.80078125 331.7265625 C166.79453735 332.408396 166.78829346 333.09022949 166.78186035 333.79272461 C166.64482885 338.39199997 165.71014509 341.61818686 163.2890625 345.53125 C160.10803652 347.12176299 156.7521526 346.92865378 153.2890625 346.53125 C151.15533382 345.15465085 150.54305993 344.28405346 149.74243164 341.91113281 C149.09696127 338.52284787 149.05212128 335.14116669 148.97265625 331.703125 C148.95187515 330.95411926 148.93109406 330.20511353 148.90968323 329.43341064 C148.84449162 327.04944712 148.78544467 324.66537688 148.7265625 322.28125 C148.68334834 320.66144746 148.63973313 319.04165557 148.59570312 317.421875 C148.48884154 313.45844168 148.38748917 309.4949014 148.2890625 305.53125 C142.1835154 305.50660487 136.07799699 305.48841629 129.97241211 305.47631836 C127.89363094 305.47127712 125.81485334 305.46444426 123.73608398 305.45581055 C120.75503664 305.44373578 117.77403601 305.43801976 114.79296875 305.43359375 C113.85755753 305.42843246 112.9221463 305.42327118 111.95838928 305.41795349 C111.09757248 305.41787796 110.23675568 305.41780243 109.34985352 305.41772461 C108.20734886 305.41439369 108.20734886 305.41439369 107.04176331 305.41099548 C105.26095645 305.34034045 105.26095645 305.34034045 104.2890625 306.53125 Z M229.2890625 306.53125 C229.2890625 334.91125 229.2890625 363.29125 229.2890625 392.53125 C234.64247243 394.39161325 234.64247243 394.39161325 239.80697632 394.73379517 C240.65663971 394.72813034 241.5063031 394.72246552 242.38171387 394.71662903 C243.29521606 394.70008774 244.20871826 394.68354645 245.14990234 394.66650391 C246.12613556 394.65704239 247.10236877 394.64758087 248.10818481 394.63783264 C251.32231811 394.60426067 254.53605718 394.55611613 257.75 394.5078125 C259.98343894 394.4816345 262.21688874 394.45636836 264.4503479 394.43197632 C270.31945573 394.36543217 276.1883343 394.28651597 282.05725098 394.20501709 C288.04979678 394.12399289 294.04247677 394.05467758 300.03515625 393.984375 C311.78661917 393.84478875 323.53787317 393.69213103 335.2890625 393.53125 C336.87022275 390.3689295 336.41843372 386.97283293 336.40258789 383.50146484 C336.40273392 382.67211929 336.40287994 381.84277374 336.4030304 380.98829651 C336.40233221 378.23956715 336.39454421 375.49090506 336.38671875 372.7421875 C336.38485424 370.83932533 336.38343049 368.93646268 336.38243103 367.03359985 C336.37860849 362.01943644 336.36878043 357.00530189 336.35772705 351.9911499 C336.34571121 345.97811479 336.34110944 339.96507004 336.33527374 333.95202637 C336.32556855 324.81174749 336.30641015 315.67153197 336.2890625 306.53125 C321.7690625 306.53125 307.2490625 306.53125 292.2890625 306.53125 C292.07926301 317.49522125 292.07926301 317.49522125 291.90112305 328.4597168 C291.8688158 329.84166124 291.83543963 331.22358128 291.80078125 332.60546875 C291.79453735 333.31401001 291.78829346 334.02255127 291.78186035 334.75256348 C291.65458504 339.15474641 290.99325864 342.02221878 288.2890625 345.53125 C285.15505365 347.09825442 281.65751155 347.38289561 278.2890625 346.53125 C274.76664163 343.12273417 273.82095558 340.5136623 273.68341064 335.62846375 C273.68218201 334.8886879 273.68095337 334.14891205 273.6796875 333.38671875 C273.66315125 332.61693192 273.64661499 331.84714508 273.62957764 331.05403137 C273.58120964 328.60885553 273.55975285 326.16430104 273.5390625 323.71875 C273.51089325 322.05530747 273.48096448 320.39189374 273.44921875 318.72851562 C273.37545439 314.66281161 273.32581195 310.59745024 273.2890625 306.53125 C262.57953349 305.88077969 251.89514645 305.42758063 241.1640625 305.40625 C240.21063965 305.40173828 239.2572168 305.39722656 238.27490234 305.39257812 C236.94773193 305.39547852 236.94773193 305.39547852 235.59375 305.3984375 C234.4178833 305.40012939 234.4178833 305.40012939 233.21826172 305.40185547 C231.20545414 305.41207299 231.20545414 305.41207299 229.2890625 306.53125 Z M417.2890625 305.53125 C415.83225778 310.10491421 415.0532604 313.84727693 415.1640625 318.69140625 C415.17953125 319.81482422 415.195 320.93824219 415.2109375 322.09570312 C415.23671875 323.25005859 415.2625 324.40441406 415.2890625 325.59375 C415.34032998 327.89694173 415.38230774 330.20036287 415.4140625 332.50390625 C415.43726563 333.51718994 415.46046875 334.53047363 415.484375 335.57446289 C415.26477748 338.89889479 414.60254704 341.47125507 413.2890625 344.53125 C410.07469721 346.67416019 408.11479641 346.83150791 404.32421875 346.9921875 C401.23915397 346.29345882 400.2121794 345.03496295 398.2890625 342.53125 C397.87170279 339.65751559 397.68397345 337.1414963 397.6796875 334.265625 C397.66405762 333.56195801 397.64842773 332.85829102 397.63232422 332.13330078 C397.57990511 329.51629084 397.56148854 326.8986888 397.5390625 324.28125 C397.4565625 318.42375 397.3740625 312.56625 397.2890625 306.53125 C383.0990625 306.53125 368.9090625 306.53125 354.2890625 306.53125 C354.20185482 321.76756138 354.20185482 321.76756138 354.14257812 337.00390625 C354.12462042 343.21508437 354.10334021 349.42613026 354.06274414 355.63720703 C354.03023088 360.6427671 354.01222648 365.64818544 354.00443077 370.65384293 C353.99887278 372.56689817 353.98801989 374.47994535 353.97187233 376.39294052 C353.95020463 379.06535568 353.94709107 381.7371796 353.94848633 384.40966797 C353.9377005 385.20664093 353.92691467 386.00361389 353.915802 386.82473755 C353.89407612 389.24822824 353.89407612 389.24822824 354.2890625 392.53125 C358.04953114 395.03822909 360.98191047 394.80169597 365.33374023 394.76171875 C366.56369469 394.76198311 366.56369469 394.76198311 367.8184967 394.76225281 C370.5367214 394.75915955 373.25451788 394.74020944 375.97265625 394.71875 C377.86776201 394.70780399 379.76286801 394.69689965 381.65797424 394.68603516 C385.63854235 394.66004009 389.61891682 394.62466308 393.59936523 394.58447266 C398.67301598 394.53522962 403.74603995 394.52248676 408.81989956 394.51881409 C412.74009744 394.50951338 416.65973865 394.47354949 420.57969856 394.43057251 C422.44812311 394.41451688 424.31665866 394.40811423 426.18514824 394.41195679 C438.12386218 394.42446347 447.81415407 393.76553667 457.41453552 385.75854492 C465.0227909 377.98685162 466.74298468 368.3938826 466.76789856 357.85775757 C466.75039047 356.56149445 466.73288239 355.26523132 466.71484375 353.9296875 C466.70990789 352.55775429 466.70661682 351.18581428 466.70487976 349.81387329 C466.69730397 346.96472019 466.67692705 344.11608113 466.64575195 341.26708984 C466.60580269 337.60962664 466.58807585 333.95249287 466.57844257 330.29483604 C466.56850611 326.79807525 466.54863374 323.30139491 466.52734375 319.8046875 C466.51995682 318.48818207 466.51256989 317.17167664 466.50495911 315.8152771 C466.48570625 314.00671738 466.48570625 314.00671738 466.46606445 312.16162109 C466.45622025 311.09559662 466.44637604 310.02957214 466.43623352 308.9312439 C466.55800928 306.57936293 466.55800928 306.57936293 465.2890625 305.53125 C463.78487511 305.43813111 462.27634894 305.41378972 460.76928711 305.41772461 C459.80836655 305.41780014 458.84744598 305.41787567 457.85740662 305.41795349 C456.29023643 305.42569542 456.29023643 305.42569542 454.69140625 305.43359375 C453.62741104 305.4350087 452.56341583 305.43642365 451.46717834 305.43788147 C448.05361167 305.44349936 444.6401095 305.45605489 441.2265625 305.46875 C438.91862074 305.47376269 436.61067795 305.478326 434.30273438 305.48242188 C428.63148824 305.4934746 422.96027997 305.51023013 417.2890625 305.53125 Z " transform="matrix(0.9999999999999999, 0, 0, 0.9999999999999999, 292.71093749999994, 411.46874999999994)" style=""/>
  <path d="M 0 0 C 9.435 6.552 15.341 15.83 18.715 26.688 C 19.383 30.908 19.16 35.227 19.16 39.5 C 144.89 39.005 144.89 39.005 273.16 38.5 C 273.82 33.55 274.48 28.6 275.16 23.5 C 279.697 12.325 286.761 1.58 298.16 -3.5 C 310.024 -7.895 320.981 -7.555 332.574 -2.434 C 344.019 3.525 350.887 12.02 355.535 24.063 C 356.093 27.132 356.428 30.11 356.699 33.215 C 356.786 34.205 356.874 35.195 356.963 36.215 C 357.061 37.346 357.061 37.346 357.16 38.5 C 357.919 38.509 358.679 38.519 359.461 38.528 C 388.98 38.984 411.589 43.169 433.848 63.75 C 451.366 82.334 456.629 103.544 456.541 128.376 C 456.545 130.498 456.549 132.62 456.555 134.742 C 456.568 140.552 456.562 146.362 456.552 152.172 C 456.546 158.446 456.556 164.72 456.564 170.994 C 456.577 182.568 456.576 194.141 456.568 205.715 C 456.56 216.407 456.558 227.1 456.562 237.793 C 456.562 238.858 456.562 238.858 456.562 239.944 C 456.563 242.827 456.564 245.709 456.565 248.592 C 456.574 275.616 456.566 302.64 456.55 329.664 C 456.536 353.659 456.537 377.654 456.551 401.649 C 456.567 428.625 456.574 455.6 456.564 482.576 C 456.563 485.453 456.563 488.33 456.562 491.207 C 456.561 492.27 456.561 492.27 456.561 493.354 C 456.557 504.038 456.561 514.723 456.569 525.407 C 456.578 537.559 456.575 549.711 456.559 561.863 C 456.551 568.062 456.548 574.261 456.558 580.46 C 456.567 586.137 456.562 591.815 456.546 597.492 C 456.543 599.543 456.545 601.594 456.552 603.645 C 456.632 628.083 450.322 647.581 433.16 665.5 C 432.584 666.139 432.008 666.779 431.414 667.438 C 426.679 672.525 421.141 676.018 415.16 679.5 C 414.491 679.892 413.822 680.284 413.133 680.688 C 403.231 686.047 392.084 688.656 380.906 688.634 C 379.658 688.638 379.658 688.638 378.386 688.641 C 375.587 688.648 372.787 688.648 369.988 688.647 C 367.966 688.65 365.944 688.654 363.921 688.658 C 358.354 688.668 352.787 688.672 347.219 688.675 C 341.218 688.679 335.217 688.688 329.216 688.697 C 315.403 688.716 301.59 688.726 287.777 688.734 C 280.947 688.739 274.118 688.744 267.289 688.749 C 243.904 688.767 220.518 688.782 197.132 688.789 C 195.664 688.79 194.196 688.79 192.728 688.791 C 192 688.791 191.272 688.791 190.522 688.792 C 186.833 688.793 183.145 688.794 179.457 688.795 C 178.725 688.795 177.993 688.796 177.239 688.796 C 153.521 688.804 129.803 688.827 106.086 688.86 C 80.999 688.894 55.913 688.914 30.826 688.917 C 28.07 688.917 25.314 688.918 22.557 688.918 C 21.878 688.919 21.2 688.919 20.5 688.919 C 9.598 688.921 -1.305 688.937 -12.207 688.957 C -23.177 688.978 -34.147 688.983 -45.117 688.974 C -51.055 688.969 -56.993 688.971 -62.931 688.99 C -68.375 689.008 -73.819 689.007 -79.263 688.991 C -81.225 688.989 -83.187 688.993 -85.148 689.005 C -110.025 689.147 -130.381 682.257 -148.594 664.871 C -167.109 645.452 -171.151 624.612 -171.107 598.923 C -171.111 596.822 -171.116 594.72 -171.121 592.618 C -171.133 586.859 -171.133 581.1 -171.131 575.341 C -171.13 569.123 -171.141 562.906 -171.151 556.688 C -171.167 544.513 -171.173 532.337 -171.174 520.162 C -171.175 510.264 -171.179 500.365 -171.185 490.467 C -171.187 487.614 -171.189 484.761 -171.191 481.909 C -171.191 481.2 -171.192 480.491 -171.192 479.76 C -171.204 459.819 -171.212 439.879 -171.211 419.938 C -171.211 419.187 -171.211 418.436 -171.211 417.662 C -171.211 413.854 -171.211 410.046 -171.211 406.238 C -171.211 405.482 -171.211 404.726 -171.211 403.947 C -171.21 402.418 -171.21 400.888 -171.21 399.359 C -171.209 375.572 -171.224 351.785 -171.251 327.998 C -171.282 301.254 -171.299 274.509 -171.298 247.765 C -171.297 244.911 -171.297 242.057 -171.297 239.203 C -171.297 238.5 -171.297 237.797 -171.297 237.073 C -171.297 225.786 -171.31 214.499 -171.327 203.211 C -171.344 191.859 -171.346 180.507 -171.333 169.155 C -171.326 163.01 -171.326 156.865 -171.344 150.721 C -171.359 145.088 -171.356 139.456 -171.339 133.823 C -171.336 131.793 -171.34 129.763 -171.351 127.733 C -171.427 112.812 -170.314 98.556 -163.09 85.125 C -162.745 84.463 -162.4 83.802 -162.044 83.12 C -158.939 77.347 -155.288 72.323 -150.84 67.5 C -150.017 66.586 -149.195 65.672 -148.348 64.73 C -138.917 54.74 -127.827 47.924 -114.84 43.5 C -113.739 43.118 -112.638 42.737 -111.504 42.344 C -96.132 37.907 -79.714 38.658 -63.84 38.5 C -63.769 37.201 -63.769 37.201 -63.696 35.876 C -62.836 22.449 -58.878 11.645 -48.625 2.531 C -33.775 -8.829 -15.863 -9.4 0 0 Z M -34.434 23.996 C -38.026 28.183 -38.962 31.313 -38.987 36.704 C -38.994 37.782 -39.001 38.86 -39.009 39.971 C -39.011 41.154 -39.014 42.337 -39.017 43.555 C -39.023 44.801 -39.03 46.047 -39.037 47.331 C -39.057 51.464 -39.068 55.597 -39.078 59.73 C -39.082 61.155 -39.086 62.58 -39.09 64.005 C -39.11 70.7 -39.124 77.396 -39.132 84.091 C -39.142 91.81 -39.168 99.529 -39.209 107.248 C -39.239 113.22 -39.254 119.192 -39.257 125.164 C -39.259 128.728 -39.268 132.292 -39.293 135.856 C -39.321 139.836 -39.317 143.817 -39.31 147.798 C -39.323 148.97 -39.335 150.143 -39.349 151.351 C -39.305 158.2 -38.575 162.698 -34.84 168.5 C -30.078 172.29 -26.166 173.886 -20.031 173.773 C -15.462 173.203 -11.442 171.448 -8.484 167.852 C -5.425 162.793 -4.72 158.004 -4.693 152.207 C -4.686 151.16 -4.678 150.113 -4.671 149.034 C -4.668 147.896 -4.666 146.758 -4.663 145.585 C -4.656 144.378 -4.65 143.171 -4.643 141.927 C -4.623 137.934 -4.612 133.942 -4.602 129.949 C -4.598 128.571 -4.593 127.193 -4.589 125.814 C -4.57 119.339 -4.556 112.863 -4.548 106.388 C -4.538 98.928 -4.512 91.469 -4.471 84.009 C -4.441 78.232 -4.426 72.455 -4.423 66.678 C -4.42 63.233 -4.412 59.788 -4.386 56.343 C -4.359 52.496 -4.363 48.65 -4.37 44.803 C -4.357 43.671 -4.344 42.539 -4.331 41.372 C -4.383 33.53 -5.488 27.942 -11.152 22.125 C -19.31 17.192 -27.45 17.441 -34.434 23.996 Z M 303.34 23.152 C 299.445 27.602 298.04 30.768 298.013 36.756 C 298.006 37.845 297.999 38.934 297.991 40.057 C 297.989 41.252 297.986 42.447 297.983 43.679 C 297.977 44.938 297.97 46.196 297.963 47.493 C 297.942 51.669 297.932 55.844 297.922 60.02 C 297.918 61.458 297.914 62.896 297.91 64.335 C 297.89 71.092 297.876 77.85 297.868 84.607 C 297.858 92.404 297.832 100.2 297.791 107.996 C 297.761 114.025 297.746 120.054 297.743 126.083 C 297.741 129.683 297.732 133.282 297.707 136.882 C 297.679 140.899 297.683 144.916 297.69 148.933 C 297.677 150.122 297.665 151.311 297.651 152.537 C 297.691 158.835 297.872 162.743 302.16 167.5 C 306.325 171.344 309.834 173.237 315.473 173.875 C 320.065 173.408 323.395 172.168 327.16 169.5 C 331.237 164.483 332.28 160.605 332.301 154.283 C 332.306 153.227 332.312 152.172 332.318 151.084 C 332.319 149.931 332.32 148.778 332.321 147.591 C 332.326 146.372 332.331 145.154 332.336 143.899 C 332.348 140.56 332.356 137.221 332.36 133.882 C 332.363 131.794 332.367 129.706 332.372 127.618 C 332.386 121.08 332.395 114.542 332.399 108.004 C 332.404 100.467 332.421 92.93 332.45 85.393 C 332.472 79.56 332.482 73.727 332.483 67.894 C 332.484 64.414 332.49 60.933 332.508 57.453 C 332.528 53.568 332.523 49.683 332.517 45.798 C 332.526 44.651 332.535 43.504 332.545 42.323 C 332.505 34.782 331.773 29.785 326.973 23.75 C 319.721 17.949 310.706 16.466 303.34 23.152 Z M -133.84 83.5 C -142.361 94.422 -149.013 107.038 -148.973 121.074 C -148.974 121.799 -148.975 122.523 -148.976 123.269 C -148.976 124.795 -148.974 126.32 -148.97 127.846 C -148.965 130.19 -148.97 132.533 -148.977 134.877 C -148.976 136.359 -148.975 137.842 -148.973 139.324 C -148.975 140.028 -148.977 140.732 -148.979 141.458 C -149.249 144.761 -149.249 144.761 -147.84 147.5 C -144.882 147.833 -144.882 147.833 -141.84 147.5 C -139.457 143.925 -139.588 142.311 -139.566 138.066 C -139.546 136.777 -139.525 135.487 -139.504 134.158 C -139.474 131.463 -139.46 128.768 -139.449 126.072 C -139.183 111.148 -134.864 98.944 -124.715 87.813 C -109.06 73.213 -91.96 72.462 -71.84 72.5 C -71.844 73.155 -71.849 73.81 -71.853 74.485 C -71.898 81.298 -71.928 88.111 -71.95 94.924 C -71.96 97.468 -71.973 100.011 -71.991 102.554 C -72.015 106.208 -72.026 109.862 -72.035 113.516 C -72.045 114.654 -72.056 115.793 -72.066 116.966 C -72.067 118.027 -72.067 119.088 -72.067 120.181 C -72.071 121.113 -72.076 122.046 -72.08 123.007 C -71.828 125.623 -71.168 127.254 -69.84 129.5 C -66.924 129.75 -66.924 129.75 -63.84 129.5 C -61.528 126.032 -61.587 124.698 -61.581 120.607 C -61.572 118.79 -61.572 118.79 -61.562 116.937 C -61.566 115.627 -61.57 114.318 -61.574 112.969 C -61.573 111.613 -61.571 110.256 -61.568 108.9 C -61.565 106.059 -61.57 103.218 -61.579 100.376 C -61.59 96.735 -61.584 93.093 -61.572 89.451 C -61.565 86.651 -61.567 83.851 -61.572 81.051 C -61.574 79.055 -61.568 77.059 -61.562 75.063 C -61.568 73.852 -61.575 72.641 -61.581 71.393 C -61.583 70.325 -61.584 69.257 -61.586 68.156 C -61.65 65.272 -61.65 65.272 -63.84 62.5 C -66.679 62.015 -66.679 62.015 -70.035 62.066 C -71.301 62.055 -72.567 62.043 -73.871 62.031 C -75.236 62.039 -76.6 62.05 -77.965 62.063 C -78.649 62.066 -79.333 62.069 -80.037 62.073 C -101.087 62.224 -119.225 67.219 -133.84 83.5 Z M 19.575 64.34 C 17.603 67.35 17.658 69.548 17.664 73.129 C 17.663 74.411 17.663 75.693 17.662 77.014 C 17.673 77.678 17.683 78.343 17.694 79.027 C 17.723 81.06 17.714 83.09 17.701 85.123 C 17.343 91.607 17.343 91.607 19.527 97.418 C 21.191 98.76 21.191 98.76 23.723 98.313 C 26.305 97.654 26.305 97.654 28.16 95.5 C 28.16 87.91 28.16 80.32 28.16 72.5 C 51.187 72.5 74.213 72.5 97.301 72.5 C 152.3 72.5 207.644 72.5 264.16 72.5 C 264.16 80.09 264.16 87.68 264.16 95.5 C 266.14 97.48 266.14 97.48 268.16 99.5 C 271.178 99.322 271.998 98.663 274.16 96.5 C 274.582 92.262 274.532 88.008 274.531 83.751 C 274.535 81.639 274.571 79.53 274.609 77.418 C 274.615 76.073 274.619 74.728 274.621 73.383 C 274.629 72.16 274.638 70.936 274.646 69.676 C 274.388 66.522 274.388 66.522 272.747 64.333 C 268.777 61.519 265.046 61.947 260.291 61.992 C 259.278 61.986 258.264 61.98 257.22 61.973 C 253.815 61.957 250.41 61.97 247.004 61.982 C 244.566 61.977 242.129 61.97 239.692 61.961 C 233.752 61.945 227.813 61.947 221.874 61.959 C 217.048 61.968 212.222 61.969 207.395 61.965 C 206.709 61.964 206.022 61.964 205.315 61.963 C 203.92 61.962 202.525 61.96 201.13 61.959 C 188.048 61.948 174.966 61.961 161.884 61.982 C 150.655 62 139.427 61.997 128.199 61.979 C 115.164 61.957 102.129 61.949 89.094 61.961 C 87.704 61.962 86.315 61.963 84.925 61.965 C 84.241 61.965 83.558 61.966 82.853 61.967 C 78.032 61.97 73.211 61.964 68.389 61.955 C 61.902 61.942 55.415 61.951 48.927 61.974 C 46.542 61.98 44.157 61.978 41.772 61.969 C 38.524 61.958 35.277 61.972 32.029 61.992 C 31.079 61.983 30.128 61.974 29.149 61.965 C 24.02 61.992 24.02 61.992 19.575 64.34 Z M 355.16 64.5 C 354.846 67.19 354.846 67.19 354.885 70.371 C 354.876 71.602 354.866 72.834 354.857 74.103 C 354.857 75.452 354.858 76.802 354.859 78.152 C 354.855 79.532 354.851 80.912 354.846 82.292 C 354.839 85.187 354.839 88.081 354.844 90.975 C 354.85 94.686 354.833 98.396 354.81 102.106 C 354.795 104.957 354.795 107.807 354.798 110.658 C 354.797 112.026 354.792 113.394 354.782 114.762 C 354.77 116.674 354.778 118.587 354.788 120.5 C 354.787 121.588 354.787 122.677 354.786 123.799 C 354.947 126.516 354.947 126.516 356.523 128.383 C 358.183 129.757 358.183 129.757 360.723 129.375 C 363.486 128.656 363.486 128.656 365.16 125.5 C 365.45 123.055 365.45 123.055 365.387 120.294 C 365.387 119.233 365.387 118.172 365.387 117.079 C 365.376 115.936 365.366 114.792 365.355 113.613 C 365.351 111.855 365.351 111.855 365.347 110.061 C 365.336 106.312 365.311 102.562 365.285 98.813 C 365.275 96.273 365.266 93.733 365.258 91.193 C 365.236 84.962 365.202 78.731 365.16 72.5 C 368.355 72.605 371.548 72.732 374.742 72.863 C 375.64 72.893 376.538 72.922 377.463 72.952 C 388.753 73.44 397.176 77.897 406.16 84.5 C 407.46 85.366 407.46 85.366 408.785 86.25 C 417.209 94.23 423.792 106.051 424.302 117.758 C 424.319 119.566 424.319 119.566 424.336 121.41 C 424.372 123.389 424.372 123.389 424.408 125.408 C 424.443 127.491 424.473 129.573 424.486 131.656 C 424.502 133.678 424.543 135.7 424.586 137.723 C 424.601 138.927 424.615 140.131 424.63 141.371 C 425.25 145.032 426.31 146.213 429.16 148.5 C 432.886 147.381 432.886 147.381 435.16 144.5 C 435.379 138.5 435.267 132.502 435.16 126.5 C 435.143 125.253 435.127 124.007 435.109 122.723 C 434.576 109.41 430.712 97.789 422.16 87.5 C 421.122 86.22 421.122 86.22 420.063 84.914 C 410.45 73.623 397.072 64.607 382.16 62.5 C 377.843 62.234 373.547 62.22 369.223 62.25 C 368.088 62.242 366.953 62.235 365.783 62.227 C 364.702 62.229 363.621 62.232 362.508 62.234 C 361.038 62.238 361.038 62.238 359.539 62.241 C 356.974 62.269 356.974 62.269 355.16 64.5 Z M -148.84 172.5 C -149.615 197.931 -149.989 223.336 -149.971 248.778 C -149.968 253.506 -149.972 258.234 -149.975 262.961 C -149.979 272.155 -149.978 281.349 -149.975 290.543 C -149.973 298.018 -149.973 305.492 -149.974 312.967 C -149.974 314.04 -149.974 315.113 -149.974 316.218 C -149.974 318.398 -149.975 320.579 -149.975 322.76 C -149.978 343.073 -149.975 363.386 -149.969 383.7 C -149.965 401.095 -149.966 418.49 -149.97 435.885 C -149.976 456.174 -149.978 476.463 -149.975 496.752 C -149.974 498.916 -149.974 501.08 -149.974 503.244 C -149.974 504.309 -149.973 505.373 -149.973 506.47 C -149.972 513.94 -149.974 521.41 -149.976 528.88 C -149.979 537.975 -149.978 547.07 -149.973 556.165 C -149.97 560.797 -149.969 565.428 -149.973 570.06 C -149.976 574.308 -149.974 578.556 -149.969 582.804 C -149.967 584.331 -149.968 585.858 -149.97 587.386 C -150.003 609.536 -148.644 630.256 -132.84 647.5 C -115.738 663.971 -96.988 666.971 -74.318 666.874 C -72.368 666.877 -70.417 666.881 -68.467 666.886 C -63.14 666.897 -57.813 666.889 -52.487 666.878 C -46.729 666.869 -40.972 666.877 -35.214 666.883 C -23.949 666.893 -12.684 666.886 -1.419 666.874 C 11.706 666.86 24.831 666.862 37.956 666.864 C 62.083 666.868 86.211 666.855 110.339 666.834 C 132.347 666.816 154.355 666.81 176.364 666.816 C 177.777 666.816 179.191 666.816 180.604 666.817 C 181.303 666.817 182.002 666.817 182.722 666.817 C 186.24 666.818 189.758 666.819 193.276 666.82 C 193.971 666.82 194.665 666.82 195.38 666.82 C 213.792 666.824 232.205 666.819 250.617 666.81 C 253.257 666.809 255.897 666.808 258.537 666.807 C 259.836 666.806 261.135 666.805 262.473 666.805 C 271.617 666.801 280.762 666.801 289.907 666.803 C 301.052 666.805 312.198 666.8 323.343 666.786 C 329.028 666.778 334.712 666.774 340.397 666.779 C 345.604 666.783 350.811 666.778 356.018 666.765 C 357.898 666.762 359.778 666.763 361.658 666.767 C 380.914 666.805 398.264 665.111 413.16 651.5 C 413.919 650.821 414.679 650.141 415.461 649.441 C 427.501 638.089 434.135 623.987 435.16 607.5 C 435.302 601.609 435.295 595.72 435.287 589.828 C 435.288 588.03 435.29 586.232 435.292 584.434 C 435.296 579.51 435.294 574.586 435.291 569.662 C 435.289 564.346 435.292 559.03 435.295 553.714 C 435.299 543.309 435.298 532.904 435.295 522.499 C 435.293 514.047 435.293 505.595 435.294 497.143 C 435.294 495.94 435.294 494.737 435.294 493.498 C 435.295 491.055 435.295 488.611 435.295 486.168 C 435.298 463.265 435.295 440.363 435.29 417.461 C 435.285 397.791 435.286 378.121 435.291 358.451 C 435.296 335.617 435.298 312.782 435.295 289.948 C 435.295 287.516 435.294 285.084 435.294 282.652 C 435.294 281.456 435.294 280.259 435.294 279.027 C 435.293 270.576 435.294 262.126 435.296 253.675 C 435.299 243.39 435.299 233.105 435.293 222.821 C 435.291 217.569 435.29 212.317 435.293 207.066 C 435.296 202.267 435.294 197.467 435.289 192.668 C 435.288 190.924 435.288 189.18 435.291 187.436 C 435.294 185.082 435.291 182.728 435.286 180.373 C 435.286 178.404 435.286 178.404 435.286 176.396 C 435.492 173.606 435.492 173.606 434.16 172.5 C 431.668 172.352 429.201 172.268 426.706 172.228 C 425.926 172.212 425.145 172.195 424.341 172.179 C 417.13 172.038 409.918 171.96 402.706 171.9 C 397.858 171.859 393.012 171.798 388.165 171.691 C 383.482 171.587 378.801 171.532 374.117 171.512 C 372.333 171.496 370.549 171.463 368.765 171.412 C 359.114 170.757 359.114 170.757 350.827 174.646 C 349.295 177.213 348.265 179.73 347.16 182.5 C 341.365 189.933 332.592 195.899 323.16 197.5 C 309.821 198.489 299.487 197.273 288.848 188.375 C 286.231 186.028 284.407 184.224 283.26 180.863 C 281.708 177.061 280.363 175.119 277.16 172.5 C 269.287 170.206 260.518 171.009 252.41 171.093 C 249.837 171.079 247.265 171.061 244.692 171.039 C 238.434 170.994 232.176 171.008 225.918 171.044 C 220.831 171.071 215.745 171.077 210.658 171.067 C 209.571 171.065 209.571 171.065 208.463 171.063 C 206.991 171.06 205.519 171.057 204.047 171.054 C 190.253 171.028 176.46 171.068 162.666 171.132 C 150.832 171.185 139 171.183 127.167 171.141 C 113.42 171.092 99.674 171.076 85.927 171.112 C 84.461 171.115 82.995 171.119 81.529 171.123 C 80.807 171.125 80.086 171.127 79.343 171.128 C 74.262 171.139 69.182 171.127 64.102 171.106 C 57.263 171.079 50.426 171.106 43.588 171.168 C 41.077 171.183 38.565 171.18 36.054 171.16 C 32.627 171.135 29.207 171.171 25.781 171.223 C 24.784 171.202 23.787 171.18 22.759 171.158 C 19.896 171.241 17.811 171.404 15.16 172.5 C 12.504 175.56 10.853 178.842 9.16 182.5 C 3.553 191.007 -6.721 195.951 -16.461 198.07 C -26.218 199.401 -35.397 197.583 -43.465 191.875 C -44.629 190.958 -44.629 190.958 -45.816 190.023 C -47.86 188.316 -47.86 188.316 -50.84 187.5 C -51.871 185.691 -51.871 185.691 -52.84 183.5 C -53.657 182.136 -54.49 180.782 -55.34 179.438 C -55.763 178.766 -56.185 178.094 -56.621 177.402 C -57.676 175.756 -58.755 174.127 -59.84 172.5 C -62.711 172.214 -65.365 172.122 -68.237 172.159 C -69.105 172.159 -69.974 172.159 -70.868 172.158 C -73.747 172.16 -76.625 172.184 -79.504 172.207 C -81.496 172.213 -83.489 172.217 -85.482 172.22 C -90.733 172.231 -95.983 172.261 -101.234 172.294 C -107.531 172.33 -113.828 172.344 -120.124 172.361 C -126.598 172.381 -133.072 172.413 -139.546 172.449 C -140.442 172.454 -141.338 172.459 -142.261 172.464 C -144.454 172.476 -146.647 172.488 -148.84 172.5 Z" transform="matrix(0.9999999999999999, 0, 0, 0.9999999999999999, 369.83984374999994, 180.49999999999997)" style=""/>
</svg>